<svg width="55" height="64" viewBox="0 0 55 64" fill="none" xmlns="http://www.w3.org/2000/svg">
<path d="M15.9688 4.5625V59.3125H11.4062V4.5625H4.5625V59.3125H50.1875V4.5625H15.9688ZM2.28125 0H52.4688C53.1349 0 53.6816 0.213677 54.109 0.641031C54.5363 1.06839 54.75 1.61513 54.75 2.28125V61.5938C54.75 62.2599 54.5363 62.8066 54.109 63.234C53.6816 63.6613 53.1349 63.875 52.4688 63.875H2.28125C1.61513 63.875 1.06839 63.6613 0.641032 63.234C0.213677 62.8066 0 62.2599 0 61.5938V2.28125C0 1.61513 0.213677 1.06839 0.641032 0.641031C1.06839 0.213677 1.61513 0 2.28125 0ZM25.0938 13.6875H38.7812C40.3021 13.6875 41.0625 14.4479 41.0625 15.9688C41.0625 17.4896 40.3021 18.25 38.7812 18.25H25.0938C23.5729 18.25 22.8125 17.4896 22.8125 15.9688C22.8125 14.4479 23.5729 13.6875 25.0938 13.6875ZM25.0938 27.375H38.7812C40.3021 27.375 41.0625 28.1354 41.0625 29.6562C41.0625 31.1771 40.3021 31.9375 38.7812 31.9375H25.0938C23.5729 31.9375 22.8125 31.1771 22.8125 29.6562C22.8125 28.1354 23.5729 27.375 25.0938 27.375ZM25.0938 41.0625H38.7812C40.3021 41.0625 41.0625 41.8229 41.0625 43.3438C41.0625 44.8646 40.3021 45.625 38.7812 45.625H25.0938C23.5729 45.625 22.8125 44.8646 22.8125 43.3438C22.8125 41.8229 23.5729 41.0625 25.0938 41.0625Z" fill="#2157F2"/>
</svg>
