<svg width="64" height="64" viewBox="0 0 64 64" fill="none" xmlns="http://www.w3.org/2000/svg">
<path d="M31.9375 0C40.9682 0.23725 48.4895 3.3618 54.5013 9.37366C60.5132 15.3855 63.6377 22.9068 63.875 31.9375C63.6377 40.9682 60.5132 48.4895 54.5013 54.5013C48.4895 60.5132 40.9682 63.6377 31.9375 63.875C22.9068 63.6377 15.3855 60.5132 9.37366 54.5013C3.3618 48.4895 0.23725 40.9682 0 31.9375C0.23725 22.9068 3.3618 15.3855 9.37366 9.37366C15.3855 3.3618 22.9068 0.23725 31.9375 0ZM31.9375 59.3125C39.6846 59.1224 46.136 56.4488 51.2916 51.2916C56.4472 46.1345 59.1209 39.6831 59.3125 31.9375C59.1224 24.1904 56.4488 17.739 51.2916 12.5834C46.1345 7.42775 39.6831 4.75413 31.9375 4.5625C24.1904 4.7526 17.739 7.42623 12.5834 12.5834C7.42775 17.7405 4.75413 24.1919 4.5625 31.9375C4.7526 39.6846 7.42623 46.136 12.5834 51.2916C17.7405 56.4472 24.1919 59.1209 31.9375 59.3125ZM28.5156 41.6328L43.1293 31.9375L28.5156 22.2422V41.6328ZM29.3004 17.2531L47.0508 29.0882C48.0484 29.8015 48.5473 30.752 48.5473 31.9398C48.5473 33.1276 48.0484 34.0781 47.0508 34.7913L29.3004 46.6265C28.7301 47.0067 28.1362 47.2089 27.5187 47.2333C26.9013 47.2576 26.3188 47.1147 25.7713 46.8044C25.2238 46.4942 24.7843 46.0782 24.4527 45.5566C24.1212 45.0349 23.9546 44.441 23.9531 43.7749V20.1069C23.9531 19.4408 24.1197 18.8469 24.4527 18.3253C24.7858 17.8036 25.2253 17.3877 25.7713 17.0774C26.3173 16.7672 26.8997 16.6242 27.5187 16.6486C28.1377 16.6729 28.7316 16.8752 29.3004 17.2554V17.2531Z" fill="#2157F2"/>
</svg>
