<svg width="33" height="33" viewBox="0 0 33 33" fill="none" xmlns="http://www.w3.org/2000/svg">
<path d="M16.4882 32.0211C25.5943 32.0211 32.9763 24.8529 32.9763 16.0105C32.9763 7.16816 25.5943 0 16.4882 0C7.382 0 0 7.16816 0 16.0105C0 24.8529 7.382 32.0211 16.4882 32.0211Z" fill="url(#paint0_linear_11_4787)"/>
<path fill-rule="evenodd" clip-rule="evenodd" d="M7.46362 15.8416C12.2702 13.8081 15.4754 12.4674 17.0791 11.8197C21.6581 9.97036 22.6095 9.6491 23.2297 9.6385C23.3661 9.63616 23.6711 9.66899 23.8686 9.82464C24.0354 9.95607 24.0813 10.1336 24.1033 10.2582C24.1252 10.3828 24.1526 10.6667 24.1308 10.8885C23.8827 13.4202 22.809 19.5638 22.2628 22.3993C22.0317 23.5991 21.5766 24.0014 21.136 24.0407C20.1785 24.1263 19.4514 23.4263 18.524 22.836C17.0729 21.9123 16.253 21.3373 14.8444 20.4359C13.2165 19.3942 14.2718 18.8217 15.1996 17.886C15.4424 17.6411 19.6611 13.915 19.7428 13.577C19.753 13.5347 19.7625 13.3771 19.666 13.2939C19.5696 13.2107 19.4274 13.2392 19.3247 13.2618C19.1791 13.2939 16.8609 14.7818 12.3699 17.7255C11.7118 18.1643 11.1158 18.378 10.5818 18.3668C9.99308 18.3545 8.86064 18.0436 8.01878 17.7779C6.98621 17.452 6.16554 17.2796 6.237 16.7261C6.27423 16.4378 6.6831 16.143 7.46362 15.8416Z" fill="white"/>
<defs>
<linearGradient id="paint0_linear_11_4787" x1="16.4882" y1="0" x2="16.4882" y2="31.7836" gradientUnits="userSpaceOnUse">
<stop stop-color="#2AABEE"/>
<stop offset="1" stop-color="#229ED9"/>
</linearGradient>
</defs>
</svg>
