<svg width="31" height="32" viewBox="0 0 31 32" fill="none" xmlns="http://www.w3.org/2000/svg">
<path d="M10.6922 8.43235C10.9632 8.44375 11.263 8.45679 11.5479 9.10714C11.7425 9.55174 12.0701 10.3806 12.3311 11.0412C12.5235 11.5279 12.6797 11.9232 12.72 12.0061C12.8151 12.2014 12.8785 12.4294 12.7517 12.6902C12.7327 12.7292 12.7152 12.766 12.6984 12.8012C12.6032 13.0009 12.5332 13.1476 12.3719 13.3415C12.3086 13.4173 12.2433 13.499 12.1779 13.5806C12.0467 13.7446 11.9154 13.9086 11.8014 14.0254C11.6107 14.2201 11.4126 14.4317 11.6344 14.8223C11.8563 15.2133 12.6194 16.4917 13.7498 17.5268C14.9641 18.6388 16.019 19.1092 16.5547 19.3481C16.6599 19.395 16.7451 19.4329 16.8075 19.4651C17.1878 19.6604 17.4096 19.6279 17.6314 19.3669C17.8533 19.1064 18.5815 18.227 18.8351 17.8364C19.0886 17.4454 19.3421 17.5105 19.6907 17.6407C20.0393 17.7709 21.9086 18.7158 22.2889 18.9111C22.363 18.9492 22.4324 18.9836 22.4966 19.0154C22.762 19.147 22.9412 19.2358 23.0177 19.3669C23.1128 19.5302 23.1128 20.3118 22.7959 21.2236C22.4791 22.1356 20.9266 23.0151 20.2294 23.0802C20.1623 23.0865 20.0956 23.0945 20.027 23.1028C19.3828 23.1806 18.5695 23.2788 15.6666 22.1031C12.0947 20.6563 9.73952 17.0709 9.25294 16.3302C9.21304 16.2694 9.18571 16.2278 9.1713 16.2081L9.16706 16.2023C8.96204 15.9208 7.6187 14.0769 7.6187 12.1689C7.6187 10.3703 8.47943 9.42752 8.87545 8.99375C8.90251 8.9641 8.92741 8.93684 8.94971 8.91184C9.29804 8.52101 9.71006 8.42321 9.96354 8.42321C9.97744 8.42321 9.99133 8.42321 10.0052 8.42321C10.2446 8.42318 10.4828 8.42315 10.6922 8.43235Z" fill="url(#paint0_linear_11_4530)"/>
<path fill-rule="evenodd" clip-rule="evenodd" d="M2.17972 23.4291C0.82891 21.0641 0.122802 18.3838 0.122802 15.6089C0.122802 7.00034 6.96897 0 15.3502 0C19.4333 0 23.2401 1.63972 26.126 4.5723C28.9811 7.5364 30.5775 11.4465 30.5775 15.6404C30.5775 24.2489 23.7314 31.2493 15.3502 31.2493C12.802 31.2493 10.2846 30.6186 8.07419 29.3573L0 31.5331L2.17972 23.4291ZM4.63575 22.5461L4.94275 23.0191L3.65334 27.8122L8.44259 26.5193L8.9031 26.8031C10.8372 28.0014 13.0783 28.632 15.3502 28.632C22.3191 28.632 27.9987 22.7984 27.9987 15.6404C27.9987 12.1718 26.6786 8.89233 24.284 6.43275C21.92 4.0047 18.7272 2.64878 15.3502 2.64878C8.38119 2.64878 2.70163 8.45086 2.70163 15.6404C2.70163 18.0685 3.37704 20.465 4.63575 22.5461Z" fill="url(#paint1_linear_11_4530)"/>
<defs>
<linearGradient id="paint0_linear_11_4530" x1="0" y1="15.7683" x2="30.5775" y2="15.7683" gradientUnits="userSpaceOnUse">
<stop stop-color="white"/>
<stop offset="0.609375" stop-color="white"/>
<stop offset="1" stop-color="white"/>
</linearGradient>
<linearGradient id="paint1_linear_11_4530" x1="0" y1="15.7683" x2="30.5775" y2="15.7683" gradientUnits="userSpaceOnUse">
<stop stop-color="white"/>
<stop offset="0.609375" stop-color="white"/>
<stop offset="1" stop-color="white"/>
</linearGradient>
</defs>
</svg>
