<svg width="32" height="32" viewBox="0 0 32 32" fill="none" xmlns="http://www.w3.org/2000/svg">
<path d="M15.7549 1C23.9039 1 30.5106 7.60596 30.5107 15.7549C30.5107 23.904 23.904 30.5107 15.7549 30.5107C7.60596 30.5106 1 23.9039 1 15.7549C1.00018 7.60607 7.60607 1.00018 15.7549 1Z" stroke="white" stroke-width="2"/>
<path fill-rule="evenodd" clip-rule="evenodd" d="M7.13168 15.5889C11.7246 13.5879 14.7873 12.2686 16.3198 11.6312C20.6952 9.81136 21.6043 9.49523 22.1969 9.48479C22.3272 9.4825 22.6187 9.5148 22.8074 9.66797C22.9668 9.7973 23.0107 9.97201 23.0317 10.0946C23.0526 10.2173 23.0788 10.4966 23.058 10.7149C22.8209 13.2061 21.795 19.2518 21.273 22.0421C21.0522 23.2227 20.6173 23.6186 20.1963 23.6573C19.2814 23.7415 18.5866 23.0527 17.7004 22.4718C16.3138 21.5628 15.5304 20.997 14.1844 20.11C12.6289 19.0849 13.6372 18.5215 14.5237 17.6008C14.7557 17.3598 18.787 13.6931 18.865 13.3605C18.8747 13.3189 18.8838 13.1638 18.7917 13.0819C18.6996 13 18.5636 13.028 18.4655 13.0503C18.3264 13.0819 16.1112 14.5461 11.8198 17.4428C11.1911 17.8746 10.6215 18.085 10.1112 18.074C9.5487 18.0618 8.4666 17.7559 7.66216 17.4944C6.67549 17.1737 5.8913 17.0041 5.95959 16.4594C5.99516 16.1757 6.38585 15.8855 7.13168 15.5889Z" fill="white"/>
</svg>
