<svg width="2880" height="250" viewBox="0 0 1440 152" fill="none" xmlns="http://www.w3.org/2000/svg">
<path d="M-1201.13 44.0333C-1201.13 44.0333 -1099.63 3.831 -959.747 0.344762C-795.61 -3.74598 -797.448 43.1061 -631.47 44.0333C-458.116 45.0017 -452.498 0.709321 -279.055 0.344762C-102.606 -0.0261171 -93.2496 45.389 83.0148 44.0333C248.904 42.7573 245.484 1.87443 411.292 0.344762C589.739 -1.30152 601.88 44.3994 780.603 44.0333C956.299 43.6734 964.581 0.880077 1140.26 0.344762C1320.49 -0.204426 1334.92 46.7417 1514.4 44.0333C1674.03 41.6244 1664.41 3.72475 1823.36 0.344762C2012.07 -3.66775 2038.61 43.3002 2228.88 44.0333C2426.27 44.7938 2458.7 -0.156029 2656.13 0.344762C2848.79 0.83349 2876.48 42.3512 3068.89 44.0333C3278.92 45.8695 3326.67 -4.62809 3534.75 0.344762C3715.81 4.67181 3889.58 49.8844 3889.58 49.8844V70.7894V151.841H-1201.13V44.0333Z" fill="#24335C"/>
</svg>
